<svg  xmlns="http://www.w3.org/2000/svg" width="339px" height="884px" style="background-color: rgba(256,256,256,1.0);float:left" 	xmlns:xlink="http://www.w3.org/1999/xlink"><defs></defs><rect id="rect214238720" x="1.0" y="426.81" width="111.0" height="31.0" style="fill:rgb(224,224,224); fill-opacity:1.0; stroke:rgb(0,0,0); stroke-width:1; " class="" /><text id="text457595904" x="11.05" y="447.105" style="fill:rgb(128,128,128); " transform="rotate(0, 31.25, 441.855) " class="" ><tspan font-family = "Arial, Helvetica, sans-serif" font-size="12px">microkanrenst</tspan></text><rect id="rect675952640" x="131.99" y="1.0" width="69.0" height="31.0" style="fill:rgb(224,224,224); fill-opacity:1.0; stroke:rgb(0,0,0); stroke-width:1; " class="" /><text id="text551287296" x="139.9375" y="21.105" style="fill:rgb(128,128,128); " transform="rotate(0, 151.7375, 15.855) " class="" ><tspan font-family = "Arial, Helvetica, sans-serif" font-size="12px">LICENSE</tspan></text><rect id="rect167922176" x="131.99" y="35.0" width="69.0" height="31.0" style="fill:rgb(224,224,224); fill-opacity:1.0; stroke:rgb(0,0,0); stroke-width:1; " class="" /><text id="text478263296" x="139.9375" y="55.105000000000004" style="fill:rgb(128,128,128); " transform="rotate(0, 151.7375, 49.855000000000004) " class="" ><tspan font-family = "Arial, Helvetica, sans-serif" font-size="12px">Makefile</tspan></text><rect id="rect140459008" x="131.84" y="69.0" width="86.0" height="31.0" style="fill:rgb(224,224,224); fill-opacity:1.0; stroke:rgb(0,0,0); stroke-width:1; " class="" /><text id="text613783040" x="140.6425" y="89.105" style="fill:rgb(128,128,128); " transform="rotate(0, 155.8425, 83.855) " class="" ><tspan font-family = "Arial, Helvetica, sans-serif" font-size="12px">.properties</tspan></text><rect id="rect414387712" x="131.84" y="120.0" width="82.0" height="31.0" style="fill:rgb(224,224,224); fill-opacity:1.0; stroke:rgb(0,0,0); stroke-width:1; " class="" /><text id="text328569856" x="140.4425" y="140.105" style="fill:rgb(128,128,128); " transform="rotate(0, 154.8425, 134.855) " class="" ><tspan font-family = "Arial, Helvetica, sans-serif" font-size="12px">ESUG2018</tspan></text><rect id="rect19906560" x="131.99" y="239.0" width="65.0" height="31.0" style="fill:rgb(224,224,224); fill-opacity:1.0; stroke:rgb(0,0,0); stroke-width:1; " class="" /><text id="text639611392" x="139.73749999999998" y="259.105" style="fill:rgb(128,128,128); " transform="rotate(0, 150.73749999999998, 253.855) " class="" ><tspan font-family = "Arial, Helvetica, sans-serif" font-size="12px">booklet</tspan></text><rect id="rect719802880" x="131.84" y="341.0" width="94.0" height="31.0" style="fill:rgb(224,224,224); fill-opacity:1.0; stroke:rgb(0,0,0); stroke-width:1; " class="" /><text id="text955379712" x="141.0425" y="361.105" style="fill:rgb(128,128,128); " transform="rotate(0, 157.8425, 355.855) " class="" ><tspan font-family = "Arial, Helvetica, sans-serif" font-size="12px">README.md</tspan></text><rect id="rect332121088" x="131.99" y="375.0" width="77.0" height="31.0" style="fill:rgb(224,224,224); fill-opacity:1.0; stroke:rgb(0,0,0); stroke-width:1; " class="" /><text id="text652889600" x="140.33749999999998" y="395.105" style="fill:rgb(128,128,128); " transform="rotate(0, 153.73749999999998, 389.855) " class="" ><tspan font-family = "Arial, Helvetica, sans-serif" font-size="12px">.gitignore</tspan></text><rect id="rect548345344" x="131.99" y="409.0" width="65.0" height="31.0" style="fill:rgb(224,224,224); fill-opacity:1.0; stroke:rgb(0,0,0); stroke-width:1; " class="" /><text id="text117885952" x="139.73749999999998" y="429.105" style="fill:rgb(128,128,128); " transform="rotate(0, 150.73749999999998, 423.855) " class="" ><tspan font-family = "Arial, Helvetica, sans-serif" font-size="12px">.project</tspan></text><rect id="rect256067584" x="131.84" y="443.0" width="64.0" height="31.0" style="fill:rgb(224,224,224); fill-opacity:1.0; stroke:rgb(0,0,0); stroke-width:1; " class="" /><text id="text174418432" x="139.5425" y="463.105" style="fill:rgb(128,128,128); " transform="rotate(0, 150.3425, 457.855) " class="" ><tspan font-family = "Arial, Helvetica, sans-serif" font-size="12px">.filetree</tspan></text><rect id="rect135944704" x="131.84" y="476.97" width="158.0" height="31.0" style="fill:rgb(224,224,224); fill-opacity:1.0; stroke:rgb(0,0,0); stroke-width:1; " class="" /><text id="text977545216" x="144.2425" y="497.105" style="fill:rgb(128,128,128); " transform="rotate(0, 173.8425, 491.855) " class="" ><tspan font-family = "Arial, Helvetica, sans-serif" font-size="12px">MicroKanren.package</tspan></text><rect id="rect279333888" x="131.84" y="681.6" width="34.0" height="31.0" style="fill:rgb(224,224,224); fill-opacity:1.0; stroke:rgb(0,0,0); stroke-width:1; " class="" /><text id="text369165824" x="138.0425" y="702.105" style="fill:rgb(128,128,128); " transform="rotate(0, 142.8425, 696.855) " class="" ><tspan font-family = "Arial, Helvetica, sans-serif" font-size="12px">.git</tspan></text><rect id="rect490282496" x="233.99" y="103.0" width="69.0" height="31.0" style="fill:rgb(224,224,224); fill-opacity:1.0; stroke:rgb(0,0,0); stroke-width:1; " class="" /><text id="text286917632" x="241.93749999999991" y="123.105" style="fill:rgb(128,128,128); " transform="rotate(0, 253.73749999999993, 117.855) " class="" ><tspan font-family = "Arial, Helvetica, sans-serif" font-size="12px">Makefile</tspan></text><rect id="rect50647040" x="233.84" y="137.0" width="68.0" height="31.0" style="fill:rgb(224,224,224); fill-opacity:1.0; stroke:rgb(0,0,0); stroke-width:1; " class="" /><text id="text825041408" x="241.7425" y="157.105" style="fill:rgb(128,128,128); " transform="rotate(0, 253.3425, 151.855) " class="" ><tspan font-family = "Arial, Helvetica, sans-serif" font-size="12px">esug.tex</tspan></text><rect id="rect169566720" x="216.99" y="171.0" width="77.0" height="31.0" style="fill:rgb(224,224,224); fill-opacity:1.0; stroke:rgb(0,0,0); stroke-width:1; " class="" /><text id="text200826880" x="225.33749999999998" y="191.105" style="fill:rgb(128,128,128); " transform="rotate(0, 238.73749999999998, 185.855) " class="" ><tspan font-family = "Arial, Helvetica, sans-serif" font-size="12px">biblio.bib</tspan></text><rect id="rect527356928" x="216.99" y="205.0" width="69.0" height="31.0" style="fill:rgb(224,224,224); fill-opacity:1.0; stroke:rgb(0,0,0); stroke-width:1; " class="" /><text id="text626638336" x="224.93749999999997" y="225.105" style="fill:rgb(128,128,128); " transform="rotate(0, 236.73749999999998, 219.855) " class="" ><tspan font-family = "Arial, Helvetica, sans-serif" font-size="12px">Makefile</tspan></text><rect id="rect651240960" x="216.99" y="239.0" width="79.0" height="31.0" style="fill:rgb(224,224,224); fill-opacity:1.0; stroke:rgb(0,0,0); stroke-width:1; " class="" /><text id="text760167424" x="225.43749999999997" y="259.105" style="fill:rgb(128,128,128); " transform="rotate(0, 239.23749999999998, 253.855) " class="" ><tspan font-family = "Arial, Helvetica, sans-serif" font-size="12px">article.tex</tspan></text><rect id="rect754210816" x="216.99" y="273.0" width="121.0" height="31.0" style="fill:rgb(224,224,224); fill-opacity:1.0; stroke:rgb(0,0,0); stroke-width:1; " class="" /><text id="text502716928" x="227.5375" y="293.105" style="fill:rgb(128,128,128); " transform="rotate(0, 249.73749999999998, 287.855) " class="" ><tspan font-family = "Arial, Helvetica, sans-serif" font-size="12px">introduction.tex</tspan></text><rect id="rect963275264" x="216.99" y="307.0" width="77.0" height="31.0" style="fill:rgb(224,224,224); fill-opacity:1.0; stroke:rgb(0,0,0); stroke-width:1; " class="" /><text id="text965646336" x="225.33749999999998" y="327.105" style="fill:rgb(128,128,128); " transform="rotate(0, 238.73749999999998, 321.855) " class="" ><tspan font-family = "Arial, Helvetica, sans-serif" font-size="12px">.gitignore</tspan></text><rect id="rect10836992" x="186.84" y="511.6" width="54.0" height="31.0" style="fill:rgb(224,224,224); fill-opacity:1.0; stroke:rgb(0,0,0); stroke-width:1; " class="" /><text id="text678721024" x="194.04249999999996" y="532.105" style="fill:rgb(128,128,128); " transform="rotate(0, 202.84249999999997, 526.855) " class="" ><tspan font-family = "Arial, Helvetica, sans-serif" font-size="12px">config</tspan></text><rect id="rect905391616" x="185.84" y="545.6" width="62.0" height="31.0" style="fill:rgb(224,224,224); fill-opacity:1.0; stroke:rgb(0,0,0); stroke-width:1; " class="" /><text id="text925266944" x="193.4425" y="566.105" style="fill:rgb(128,128,128); " transform="rotate(0, 203.8425, 560.855) " class="" ><tspan font-family = "Arial, Helvetica, sans-serif" font-size="12px">objects</tspan></text><rect id="rect1032970240" x="185.84" y="579.6" width="50.0" height="31.0" style="fill:rgb(224,224,224); fill-opacity:1.0; stroke:rgb(0,0,0); stroke-width:1; " class="" /><text id="text876777984" x="192.8425" y="600.105" style="fill:rgb(128,128,128); " transform="rotate(0, 200.8425, 594.855) " class="" ><tspan font-family = "Arial, Helvetica, sans-serif" font-size="12px">HEAD</tspan></text><rect id="rect1049063936" x="186.84" y="613.6" width="38.0" height="31.0" style="fill:rgb(224,224,224); fill-opacity:1.0; stroke:rgb(0,0,0); stroke-width:1; " class="" /><text id="text780587008" x="193.24249999999998" y="634.105" style="fill:rgb(128,128,128); " transform="rotate(0, 198.84249999999997, 628.855) " class="" ><tspan font-family = "Arial, Helvetica, sans-serif" font-size="12px">info</tspan></text><rect id="rect348775424" x="185.84" y="647.6" width="40.0" height="31.0" style="fill:rgb(224,224,224); fill-opacity:1.0; stroke:rgb(0,0,0); stroke-width:1; " class="" /><text id="text315698688" x="192.3425" y="668.105" style="fill:rgb(128,128,128); " transform="rotate(0, 198.3425, 662.855) " class="" ><tspan font-family = "Arial, Helvetica, sans-serif" font-size="12px">logs</tspan></text><rect id="rect590034432" x="185.84" y="681.6" width="88.0" height="31.0" style="fill:rgb(224,224,224); fill-opacity:1.0; stroke:rgb(0,0,0); stroke-width:1; " class="" /><text id="text706718720" x="194.74249999999998" y="702.105" style="fill:rgb(128,128,128); " transform="rotate(0, 210.34249999999997, 696.855) " class="" ><tspan font-family = "Arial, Helvetica, sans-serif" font-size="12px">description</tspan></text><rect id="rect90007552" x="186.0" y="715.6" width="53.0" height="31.0" style="fill:rgb(224,224,224); fill-opacity:1.0; stroke:rgb(0,0,0); stroke-width:1; " class="" /><text id="text932203008" x="193.14999999999998" y="736.105" style="fill:rgb(128,128,128); " transform="rotate(0, 201.74999999999997, 730.855) " class="" ><tspan font-family = "Arial, Helvetica, sans-serif" font-size="12px">hooks</tspan></text><rect id="rect569539072" x="186.84" y="749.6" width="38.0" height="31.0" style="fill:rgb(224,224,224); fill-opacity:1.0; stroke:rgb(0,0,0); stroke-width:1; " class="" /><text id="text912328704" x="193.24249999999998" y="770.105" style="fill:rgb(128,128,128); " transform="rotate(0, 198.84249999999997, 764.855) " class="" ><tspan font-family = "Arial, Helvetica, sans-serif" font-size="12px">refs</tspan></text><rect id="rect475819008" x="186.0" y="783.6" width="49.0" height="31.0" style="fill:rgb(224,224,224); fill-opacity:1.0; stroke:rgb(0,0,0); stroke-width:1; " class="" /><text id="text938468864" x="192.94999999999996" y="804.105" style="fill:rgb(128,128,128); " transform="rotate(0, 200.74999999999997, 798.855) " class="" ><tspan font-family = "Arial, Helvetica, sans-serif" font-size="12px">index</tspan></text><rect id="rect653082112" x="185.84" y="817.6" width="92.0" height="31.0" style="fill:rgb(224,224,224); fill-opacity:1.0; stroke:rgb(0,0,0); stroke-width:1; " class="" /><text id="text565896192" x="194.9425" y="838.105" style="fill:rgb(128,128,128); " transform="rotate(0, 211.3425, 832.855) " class="" ><tspan font-family = "Arial, Helvetica, sans-serif" font-size="12px">packed-refs</tspan></text><rect id="rect886501376" x="186.0" y="851.6" width="137.0" height="31.0" style="fill:rgb(224,224,224); fill-opacity:1.0; stroke:rgb(0,0,0); stroke-width:1; " class="" /><text id="text190841344" x="197.34999999999997" y="872.105" style="fill:rgb(128,128,128); " transform="rotate(0, 222.74999999999997, 866.855) " class="" ><tspan font-family = "Arial, Helvetica, sans-serif" font-size="12px">COMMIT_EDITMSG</tspan></text><line id="line3C" x1="214" y1="135" x2="224" y2="135" style="stroke:rgb(224,224,224); stroke-opacity:1.0; stroke-width:1; " class="" /><line id="line3D" x1="224" y1="135" x2="224" y2="118" style="stroke:rgb(224,224,224); stroke-opacity:1.0; stroke-width:1; " class="" /><line id="line3E" x1="224" y1="118" x2="234" y2="118" style="stroke:rgb(224,224,224); stroke-opacity:1.0; stroke-width:1; " class="" /><line id="line3F" x1="214" y1="135" x2="224" y2="135" style="stroke:rgb(224,224,224); stroke-opacity:1.0; stroke-width:1; " class="" /><line id="line40" x1="224" y1="135" x2="224" y2="152" style="stroke:rgb(224,224,224); stroke-opacity:1.0; stroke-width:1; " class="" /><line id="line41" x1="224" y1="152" x2="234" y2="152" style="stroke:rgb(224,224,224); stroke-opacity:1.0; stroke-width:1; " class="" /><line id="line42" x1="197" y1="254" x2="207" y2="254" style="stroke:rgb(224,224,224); stroke-opacity:1.0; stroke-width:1; " class="" /><line id="line43" x1="207" y1="254" x2="207" y2="186" style="stroke:rgb(224,224,224); stroke-opacity:1.0; stroke-width:1; " class="" /><line id="line44" x1="207" y1="186" x2="217" y2="186" style="stroke:rgb(224,224,224); stroke-opacity:1.0; stroke-width:1; " class="" /><line id="line45" x1="197" y1="254" x2="207" y2="254" style="stroke:rgb(224,224,224); stroke-opacity:1.0; stroke-width:1; " class="" /><line id="line46" x1="207" y1="254" x2="207" y2="220" style="stroke:rgb(224,224,224); stroke-opacity:1.0; stroke-width:1; " class="" /><line id="line47" x1="207" y1="220" x2="217" y2="220" style="stroke:rgb(224,224,224); stroke-opacity:1.0; stroke-width:1; " class="" /><line id="line48" x1="197" y1="254" x2="207" y2="254" style="stroke:rgb(224,224,224); stroke-opacity:1.0; stroke-width:1; " class="" /><line id="line49" x1="207" y1="254" x2="207" y2="254" style="stroke:rgb(224,224,224); stroke-opacity:1.0; stroke-width:1; " class="" /><line id="line4A" x1="207" y1="254" x2="217" y2="254" style="stroke:rgb(224,224,224); stroke-opacity:1.0; stroke-width:1; " class="" /><line id="line4B" x1="197" y1="254" x2="207" y2="254" style="stroke:rgb(224,224,224); stroke-opacity:1.0; stroke-width:1; " class="" /><line id="line4C" x1="207" y1="254" x2="207" y2="288" style="stroke:rgb(224,224,224); stroke-opacity:1.0; stroke-width:1; " class="" /><line id="line4D" x1="207" y1="288" x2="217" y2="288" style="stroke:rgb(224,224,224); stroke-opacity:1.0; stroke-width:1; " class="" /><line id="line4E" x1="197" y1="254" x2="207" y2="254" style="stroke:rgb(224,224,224); stroke-opacity:1.0; stroke-width:1; " class="" /><line id="line4F" x1="207" y1="254" x2="207" y2="322" style="stroke:rgb(224,224,224); stroke-opacity:1.0; stroke-width:1; " class="" /><line id="line50" x1="207" y1="322" x2="217" y2="322" style="stroke:rgb(224,224,224); stroke-opacity:1.0; stroke-width:1; " class="" /><line id="line51" x1="166" y1="697" x2="176" y2="697" style="stroke:rgb(224,224,224); stroke-opacity:1.0; stroke-width:1; " class="" /><line id="line52" x1="176" y1="697" x2="176" y2="527" style="stroke:rgb(224,224,224); stroke-opacity:1.0; stroke-width:1; " class="" /><line id="line53" x1="176" y1="527" x2="187" y2="527" style="stroke:rgb(224,224,224); stroke-opacity:1.0; stroke-width:1; " class="" /><line id="line54" x1="166" y1="697" x2="176" y2="697" style="stroke:rgb(224,224,224); stroke-opacity:1.0; stroke-width:1; " class="" /><line id="line55" x1="176" y1="697" x2="176" y2="561" style="stroke:rgb(224,224,224); stroke-opacity:1.0; stroke-width:1; " class="" /><line id="line56" x1="176" y1="561" x2="186" y2="561" style="stroke:rgb(224,224,224); stroke-opacity:1.0; stroke-width:1; " class="" /><line id="line57" x1="166" y1="697" x2="176" y2="697" style="stroke:rgb(224,224,224); stroke-opacity:1.0; stroke-width:1; " class="" /><line id="line58" x1="176" y1="697" x2="176" y2="595" style="stroke:rgb(224,224,224); stroke-opacity:1.0; stroke-width:1; " class="" /><line id="line59" x1="176" y1="595" x2="186" y2="595" style="stroke:rgb(224,224,224); stroke-opacity:1.0; stroke-width:1; " class="" /><line id="line5A" x1="166" y1="697" x2="176" y2="697" style="stroke:rgb(224,224,224); stroke-opacity:1.0; stroke-width:1; " class="" /><line id="line5B" x1="176" y1="697" x2="176" y2="629" style="stroke:rgb(224,224,224); stroke-opacity:1.0; stroke-width:1; " class="" /><line id="line5C" x1="176" y1="629" x2="187" y2="629" style="stroke:rgb(224,224,224); stroke-opacity:1.0; stroke-width:1; " class="" /><line id="line5D" x1="166" y1="697" x2="176" y2="697" style="stroke:rgb(224,224,224); stroke-opacity:1.0; stroke-width:1; " class="" /><line id="line5E" x1="176" y1="697" x2="176" y2="663" style="stroke:rgb(224,224,224); stroke-opacity:1.0; stroke-width:1; " class="" /><line id="line5F" x1="176" y1="663" x2="186" y2="663" style="stroke:rgb(224,224,224); stroke-opacity:1.0; stroke-width:1; " class="" /><line id="line60" x1="166" y1="697" x2="176" y2="697" style="stroke:rgb(224,224,224); stroke-opacity:1.0; stroke-width:1; " class="" /><line id="line61" x1="176" y1="697" x2="176" y2="697" style="stroke:rgb(224,224,224); stroke-opacity:1.0; stroke-width:1; " class="" /><line id="line62" x1="176" y1="697" x2="186" y2="697" style="stroke:rgb(224,224,224); stroke-opacity:1.0; stroke-width:1; " class="" /><line id="line63" x1="166" y1="697" x2="176" y2="697" style="stroke:rgb(224,224,224); stroke-opacity:1.0; stroke-width:1; " class="" /><line id="line64" x1="176" y1="697" x2="176" y2="731" style="stroke:rgb(224,224,224); stroke-opacity:1.0; stroke-width:1; " class="" /><line id="line65" x1="176" y1="731" x2="186" y2="731" style="stroke:rgb(224,224,224); stroke-opacity:1.0; stroke-width:1; " class="" /><line id="line66" x1="166" y1="697" x2="176" y2="697" style="stroke:rgb(224,224,224); stroke-opacity:1.0; stroke-width:1; " class="" /><line id="line67" x1="176" y1="697" x2="176" y2="765" style="stroke:rgb(224,224,224); stroke-opacity:1.0; stroke-width:1; " class="" /><line id="line68" x1="176" y1="765" x2="187" y2="765" style="stroke:rgb(224,224,224); stroke-opacity:1.0; stroke-width:1; " class="" /><line id="line69" x1="166" y1="697" x2="176" y2="697" style="stroke:rgb(224,224,224); stroke-opacity:1.0; stroke-width:1; " class="" /><line id="line6A" x1="176" y1="697" x2="176" y2="799" style="stroke:rgb(224,224,224); stroke-opacity:1.0; stroke-width:1; " class="" /><line id="line6B" x1="176" y1="799" x2="186" y2="799" style="stroke:rgb(224,224,224); stroke-opacity:1.0; stroke-width:1; " class="" /><line id="line6C" x1="166" y1="697" x2="176" y2="697" style="stroke:rgb(224,224,224); stroke-opacity:1.0; stroke-width:1; " class="" /><line id="line6D" x1="176" y1="697" x2="176" y2="833" style="stroke:rgb(224,224,224); stroke-opacity:1.0; stroke-width:1; " class="" /><line id="line6E" x1="176" y1="833" x2="186" y2="833" style="stroke:rgb(224,224,224); stroke-opacity:1.0; stroke-width:1; " class="" /><line id="line6F" x1="166" y1="697" x2="176" y2="697" style="stroke:rgb(224,224,224); stroke-opacity:1.0; stroke-width:1; " class="" /><line id="line70" x1="176" y1="697" x2="176" y2="867" style="stroke:rgb(224,224,224); stroke-opacity:1.0; stroke-width:1; " class="" /><line id="line71" x1="176" y1="867" x2="186" y2="867" style="stroke:rgb(224,224,224); stroke-opacity:1.0; stroke-width:1; " class="" /><line id="line72" x1="112" y1="442" x2="122" y2="442" style="stroke:rgb(224,224,224); stroke-opacity:1.0; stroke-width:1; " class="" /><line id="line73" x1="122" y1="442" x2="122" y2="16" style="stroke:rgb(224,224,224); stroke-opacity:1.0; stroke-width:1; " class="" /><line id="line74" x1="122" y1="16" x2="132" y2="16" style="stroke:rgb(224,224,224); stroke-opacity:1.0; stroke-width:1; " class="" /><line id="line75" x1="112" y1="442" x2="122" y2="442" style="stroke:rgb(224,224,224); stroke-opacity:1.0; stroke-width:1; " class="" /><line id="line76" x1="122" y1="442" x2="122" y2="50" style="stroke:rgb(224,224,224); stroke-opacity:1.0; stroke-width:1; " class="" /><line id="line77" x1="122" y1="50" x2="132" y2="50" style="stroke:rgb(224,224,224); stroke-opacity:1.0; stroke-width:1; " class="" /><line id="line78" x1="112" y1="442" x2="122" y2="442" style="stroke:rgb(224,224,224); stroke-opacity:1.0; stroke-width:1; " class="" /><line id="line79" x1="122" y1="442" x2="122" y2="84" style="stroke:rgb(224,224,224); stroke-opacity:1.0; stroke-width:1; " class="" /><line id="line7A" x1="122" y1="84" x2="132" y2="84" style="stroke:rgb(224,224,224); stroke-opacity:1.0; stroke-width:1; " class="" /><line id="line7B" x1="112" y1="442" x2="122" y2="442" style="stroke:rgb(224,224,224); stroke-opacity:1.0; stroke-width:1; " class="" /><line id="line7C" x1="122" y1="442" x2="122" y2="135" style="stroke:rgb(224,224,224); stroke-opacity:1.0; stroke-width:1; " class="" /><line id="line7D" x1="122" y1="135" x2="132" y2="135" style="stroke:rgb(224,224,224); stroke-opacity:1.0; stroke-width:1; " class="" /><line id="line7E" x1="112" y1="442" x2="122" y2="442" style="stroke:rgb(224,224,224); stroke-opacity:1.0; stroke-width:1; " class="" /><line id="line7F" x1="122" y1="442" x2="122" y2="254" style="stroke:rgb(224,224,224); stroke-opacity:1.0; stroke-width:1; " class="" /><line id="line80" x1="122" y1="254" x2="132" y2="254" style="stroke:rgb(224,224,224); stroke-opacity:1.0; stroke-width:1; " class="" /><line id="line81" x1="112" y1="442" x2="122" y2="442" style="stroke:rgb(224,224,224); stroke-opacity:1.0; stroke-width:1; " class="" /><line id="line82" x1="122" y1="442" x2="122" y2="356" style="stroke:rgb(224,224,224); stroke-opacity:1.0; stroke-width:1; " class="" /><line id="line83" x1="122" y1="356" x2="132" y2="356" style="stroke:rgb(224,224,224); stroke-opacity:1.0; stroke-width:1; " class="" /><line id="line84" x1="112" y1="442" x2="122" y2="442" style="stroke:rgb(224,224,224); stroke-opacity:1.0; stroke-width:1; " class="" /><line id="line85" x1="122" y1="442" x2="122" y2="390" style="stroke:rgb(224,224,224); stroke-opacity:1.0; stroke-width:1; " class="" /><line id="line86" x1="122" y1="390" x2="132" y2="390" style="stroke:rgb(224,224,224); stroke-opacity:1.0; stroke-width:1; " class="" /><line id="line87" x1="112" y1="442" x2="122" y2="442" style="stroke:rgb(224,224,224); stroke-opacity:1.0; stroke-width:1; " class="" /><line id="line88" x1="122" y1="442" x2="122" y2="424" style="stroke:rgb(224,224,224); stroke-opacity:1.0; stroke-width:1; " class="" /><line id="line89" x1="122" y1="424" x2="132" y2="424" style="stroke:rgb(224,224,224); stroke-opacity:1.0; stroke-width:1; " class="" /><line id="line8A" x1="112" y1="442" x2="122" y2="442" style="stroke:rgb(224,224,224); stroke-opacity:1.0; stroke-width:1; " class="" /><line id="line8B" x1="122" y1="442" x2="122" y2="458" style="stroke:rgb(224,224,224); stroke-opacity:1.0; stroke-width:1; " class="" /><line id="line8C" x1="122" y1="458" x2="132" y2="458" style="stroke:rgb(224,224,224); stroke-opacity:1.0; stroke-width:1; " class="" /><line id="line8D" x1="112" y1="442" x2="122" y2="442" style="stroke:rgb(224,224,224); stroke-opacity:1.0; stroke-width:1; " class="" /><line id="line8E" x1="122" y1="442" x2="122" y2="492" style="stroke:rgb(224,224,224); stroke-opacity:1.0; stroke-width:1; " class="" /><line id="line8F" x1="122" y1="492" x2="132" y2="492" style="stroke:rgb(224,224,224); stroke-opacity:1.0; stroke-width:1; " class="" /><line id="line90" x1="112" y1="442" x2="122" y2="442" style="stroke:rgb(224,224,224); stroke-opacity:1.0; stroke-width:1; " class="" /><line id="line91" x1="122" y1="442" x2="122" y2="697" style="stroke:rgb(224,224,224); stroke-opacity:1.0; stroke-width:1; " class="" /><line id="line92" x1="122" y1="697" x2="132" y2="697" style="stroke:rgb(224,224,224); stroke-opacity:1.0; stroke-width:1; " class="" /></svg>