<svg  xmlns="http://www.w3.org/2000/svg" width="142px" height="144px" style="background-color: rgba(256,256,256,1.0);float:left" 	xmlns:xlink="http://www.w3.org/1999/xlink"><defs></defs><ellipse id="ellipse1031646464" cx="71" cy="73" rx="1" ry="1" style="fill:rgb(224,224,224); fill-opacity:1.0; " class="" /><ellipse id="ellipse99953152" cx="71" cy="71" rx="1" ry="1" style="fill:rgb(224,224,224); fill-opacity:1.0; " class="" /><line id="line2" x1="72" y1="74" x2="72" y2="72" style="stroke:rgb(224,224,224); stroke-opacity:1.0; stroke-width:1; " class="" /><ellipse id="ellipse105051392" cx="75" cy="71" rx="1" ry="1" style="fill:rgb(224,224,224); fill-opacity:1.0; " class="" /><line id="line4" x1="72" y1="72" x2="76" y2="72" style="stroke:rgb(224,224,224); stroke-opacity:1.0; stroke-width:1; " class="" /><ellipse id="ellipse561844224" cx="75" cy="77" rx="1" ry="1" style="fill:rgb(224,224,224); fill-opacity:1.0; " class="" /><line id="line6" x1="76" y1="72" x2="76" y2="78" style="stroke:rgb(224,224,224); stroke-opacity:1.0; stroke-width:1; " class="" /><ellipse id="ellipse1062107904" cx="67" cy="77" rx="1" ry="1" style="fill:rgb(224,224,224); fill-opacity:1.0; " class="" /><line id="line8" x1="76" y1="78" x2="68" y2="78" style="stroke:rgb(224,224,224); stroke-opacity:1.0; stroke-width:1; " class="" /><ellipse id="ellipse900871680" cx="67" cy="67" rx="1" ry="1" style="fill:rgb(224,224,224); fill-opacity:1.0; " class="" /><line id="lineA" x1="68" y1="78" x2="68" y2="68" style="stroke:rgb(224,224,224); stroke-opacity:1.0; stroke-width:1; " class="" /><ellipse id="ellipse334708992" cx="78" cy="66" rx="1" ry="1" style="fill:rgb(224,224,224); fill-opacity:1.0; " class="" /><line id="lineC" x1="68" y1="68" x2="79" y2="67" style="stroke:rgb(224,224,224); stroke-opacity:1.0; stroke-width:1; " class="" /><ellipse id="ellipse1034722304" cx="80" cy="80" rx="1" ry="1" style="fill:rgb(224,224,224); fill-opacity:1.0; " class="" /><line id="lineE" x1="79" y1="67" x2="81" y2="81" style="stroke:rgb(224,224,224); stroke-opacity:1.0; stroke-width:1; " class="" /><ellipse id="ellipse365512448" cx="64" cy="82" rx="1" ry="1" style="fill:rgb(224,224,224); fill-opacity:1.0; " class="" /><line id="line10" x1="81" y1="81" x2="65" y2="83" style="stroke:rgb(224,224,224); stroke-opacity:1.0; stroke-width:1; " class="" /><ellipse id="ellipse964968960" cx="62" cy="64" rx="1" ry="1" style="fill:rgb(224,224,224); fill-opacity:1.0; " class="" /><line id="line12" x1="65" y1="83" x2="63" y2="65" style="stroke:rgb(224,224,224); stroke-opacity:1.0; stroke-width:1; " class="" /><ellipse id="ellipse191401216" cx="81" cy="61" rx="1" ry="1" style="fill:rgb(224,224,224); fill-opacity:1.0; " class="" /><line id="line14" x1="63" y1="65" x2="82" y2="62" style="stroke:rgb(224,224,224); stroke-opacity:1.0; stroke-width:1; " class="" /><ellipse id="ellipse240199680" cx="85" cy="83" rx="1" ry="1" style="fill:rgb(224,224,224); fill-opacity:1.0; " class="" /><line id="line16" x1="82" y1="62" x2="86" y2="84" style="stroke:rgb(224,224,224); stroke-opacity:1.0; stroke-width:1; " class="" /><ellipse id="ellipse275321600" cx="62" cy="87" rx="1" ry="1" style="fill:rgb(224,224,224); fill-opacity:1.0; " class="" /><line id="line18" x1="86" y1="84" x2="63" y2="88" style="stroke:rgb(224,224,224); stroke-opacity:1.0; stroke-width:1; " class="" /><ellipse id="ellipse640372224" cx="56" cy="62" rx="1" ry="1" style="fill:rgb(224,224,224); fill-opacity:1.0; " class="" /><line id="line1A" x1="63" y1="88" x2="57" y2="63" style="stroke:rgb(224,224,224); stroke-opacity:1.0; stroke-width:1; " class="" /><ellipse id="ellipse895670528" cx="83" cy="56" rx="1" ry="1" style="fill:rgb(224,224,224); fill-opacity:1.0; " class="" /><line id="line1C" x1="57" y1="63" x2="84" y2="57" style="stroke:rgb(224,224,224); stroke-opacity:1.0; stroke-width:1; " class="" /><ellipse id="ellipse271234048" cx="91" cy="85" rx="1" ry="1" style="fill:rgb(224,224,224); fill-opacity:1.0; " class="" /><line id="line1E" x1="84" y1="57" x2="92" y2="86" style="stroke:rgb(224,224,224); stroke-opacity:1.0; stroke-width:1; " class="" /><ellipse id="ellipse535682816" cx="60" cy="93" rx="1" ry="1" style="fill:rgb(224,224,224); fill-opacity:1.0; " class="" /><line id="line20" x1="92" y1="86" x2="61" y2="94" style="stroke:rgb(224,224,224); stroke-opacity:1.0; stroke-width:1; " class="" /><ellipse id="ellipse543644160" cx="50" cy="60" rx="1" ry="1" style="fill:rgb(224,224,224); fill-opacity:1.0; " class="" /><line id="line22" x1="61" y1="94" x2="51" y2="61" style="stroke:rgb(224,224,224); stroke-opacity:1.0; stroke-width:1; " class="" /><ellipse id="ellipse715269376" cx="85" cy="50" rx="1" ry="1" style="fill:rgb(224,224,224); fill-opacity:1.0; " class="" /><line id="line24" x1="51" y1="61" x2="86" y2="51" style="stroke:rgb(224,224,224); stroke-opacity:1.0; stroke-width:1; " class="" /><ellipse id="ellipse267993088" cx="97" cy="86" rx="1" ry="1" style="fill:rgb(224,224,224); fill-opacity:1.0; " class="" /><line id="line26" x1="86" y1="51" x2="98" y2="87" style="stroke:rgb(224,224,224); stroke-opacity:1.0; stroke-width:1; " class="" /><ellipse id="ellipse85437184" cx="59" cy="99" rx="1" ry="1" style="fill:rgb(224,224,224); fill-opacity:1.0; " class="" /><line id="line28" x1="98" y1="87" x2="60" y2="100" style="stroke:rgb(224,224,224); stroke-opacity:1.0; stroke-width:1; " class="" /><ellipse id="ellipse486041088" cx="44" cy="60" rx="1" ry="1" style="fill:rgb(224,224,224); fill-opacity:1.0; " class="" /><line id="line2A" x1="60" y1="100" x2="45" y2="61" style="stroke:rgb(224,224,224); stroke-opacity:1.0; stroke-width:1; " class="" /><ellipse id="ellipse333869312" cx="85" cy="44" rx="1" ry="1" style="fill:rgb(224,224,224); fill-opacity:1.0; " class="" /><line id="line2C" x1="45" y1="61" x2="86" y2="45" style="stroke:rgb(224,224,224); stroke-opacity:1.0; stroke-width:1; " class="" /><ellipse id="ellipse712821760" cx="103" cy="87" rx="1" ry="1" style="fill:rgb(224,224,224); fill-opacity:1.0; " class="" /><line id="line2E" x1="86" y1="45" x2="104" y2="88" style="stroke:rgb(224,224,224); stroke-opacity:1.0; stroke-width:1; " class="" /><ellipse id="ellipse279344896" cx="59" cy="105" rx="1" ry="1" style="fill:rgb(224,224,224); fill-opacity:1.0; " class="" /><line id="line30" x1="104" y1="88" x2="60" y2="106" style="stroke:rgb(224,224,224); stroke-opacity:1.0; stroke-width:1; " class="" /><ellipse id="ellipse547254784" cx="38" cy="60" rx="1" ry="1" style="fill:rgb(224,224,224); fill-opacity:1.0; " class="" /><line id="line32" x1="60" y1="106" x2="39" y2="61" style="stroke:rgb(224,224,224); stroke-opacity:1.0; stroke-width:1; " class="" /><ellipse id="ellipse703577344" cx="85" cy="38" rx="1" ry="1" style="fill:rgb(224,224,224); fill-opacity:1.0; " class="" /><line id="line34" x1="39" y1="61" x2="86" y2="39" style="stroke:rgb(224,224,224); stroke-opacity:1.0; stroke-width:1; " class="" /><ellipse id="ellipse209016832" cx="109" cy="86" rx="1" ry="1" style="fill:rgb(224,224,224); fill-opacity:1.0; " class="" /><line id="line36" x1="86" y1="39" x2="110" y2="87" style="stroke:rgb(224,224,224); stroke-opacity:1.0; stroke-width:1; " class="" /><ellipse id="ellipse593117952" cx="59" cy="112" rx="1" ry="1" style="fill:rgb(224,224,224); fill-opacity:1.0; " class="" /><line id="line38" x1="110" y1="87" x2="60" y2="113" style="stroke:rgb(224,224,224); stroke-opacity:1.0; stroke-width:1; " class="" /><ellipse id="ellipse1670656" cx="32" cy="60" rx="1" ry="1" style="fill:rgb(224,224,224); fill-opacity:1.0; " class="" /><line id="line3A" x1="60" y1="113" x2="33" y2="61" style="stroke:rgb(224,224,224); stroke-opacity:1.0; stroke-width:1; " class="" /><ellipse id="ellipse897452288" cx="84" cy="31" rx="1" ry="1" style="fill:rgb(224,224,224); fill-opacity:1.0; " class="" /><line id="line3C" x1="33" y1="61" x2="85" y2="32" style="stroke:rgb(224,224,224); stroke-opacity:1.0; stroke-width:1; " class="" /><ellipse id="ellipse849536000" cx="115" cy="85" rx="1" ry="1" style="fill:rgb(224,224,224); fill-opacity:1.0; " class="" /><line id="line3E" x1="85" y1="32" x2="116" y2="86" style="stroke:rgb(224,224,224); stroke-opacity:1.0; stroke-width:1; " class="" /><ellipse id="ellipse770903808" cx="60" cy="118" rx="1" ry="1" style="fill:rgb(224,224,224); fill-opacity:1.0; " class="" /><line id="line40" x1="116" y1="86" x2="61" y2="119" style="stroke:rgb(224,224,224); stroke-opacity:1.0; stroke-width:1; " class="" /><ellipse id="ellipse539593216" cx="26" cy="62" rx="1" ry="1" style="fill:rgb(224,224,224); fill-opacity:1.0; " class="" /><line id="line42" x1="61" y1="119" x2="27" y2="63" style="stroke:rgb(224,224,224); stroke-opacity:1.0; stroke-width:1; " class="" /><ellipse id="ellipse256988416" cx="83" cy="25" rx="1" ry="1" style="fill:rgb(224,224,224); fill-opacity:1.0; " class="" /><line id="line44" x1="27" y1="63" x2="84" y2="26" style="stroke:rgb(224,224,224); stroke-opacity:1.0; stroke-width:1; " class="" /><ellipse id="ellipse700805120" cx="122" cy="83" rx="1" ry="1" style="fill:rgb(224,224,224); fill-opacity:1.0; " class="" /><line id="line46" x1="84" y1="26" x2="123" y2="84" style="stroke:rgb(224,224,224); stroke-opacity:1.0; stroke-width:1; " class="" /><ellipse id="ellipse825285376" cx="63" cy="124" rx="1" ry="1" style="fill:rgb(224,224,224); fill-opacity:1.0; " class="" /><line id="line48" x1="123" y1="84" x2="64" y2="125" style="stroke:rgb(224,224,224); stroke-opacity:1.0; stroke-width:1; " class="" /><ellipse id="ellipse898536960" cx="19" cy="64" rx="1" ry="1" style="fill:rgb(224,224,224); fill-opacity:1.0; " class="" /><line id="line4A" x1="64" y1="125" x2="20" y2="65" style="stroke:rgb(224,224,224); stroke-opacity:1.0; stroke-width:1; " class="" /><ellipse id="ellipse539599104" cx="80" cy="19" rx="1" ry="1" style="fill:rgb(224,224,224); fill-opacity:1.0; " class="" /><line id="line4C" x1="20" y1="65" x2="81" y2="20" style="stroke:rgb(224,224,224); stroke-opacity:1.0; stroke-width:1; " class="" /><ellipse id="ellipse245169152" cx="128" cy="80" rx="1" ry="1" style="fill:rgb(224,224,224); fill-opacity:1.0; " class="" /><line id="line4E" x1="81" y1="20" x2="129" y2="81" style="stroke:rgb(224,224,224); stroke-opacity:1.0; stroke-width:1; " class="" /><ellipse id="ellipse1037281024" cx="66" cy="130" rx="1" ry="1" style="fill:rgb(224,224,224); fill-opacity:1.0; " class="" /><line id="line50" x1="129" y1="81" x2="67" y2="131" style="stroke:rgb(224,224,224); stroke-opacity:1.0; stroke-width:1; " class="" /><ellipse id="ellipse84451840" cx="13" cy="68" rx="1" ry="1" style="fill:rgb(224,224,224); fill-opacity:1.0; " class="" /><line id="line52" x1="67" y1="131" x2="14" y2="69" style="stroke:rgb(224,224,224); stroke-opacity:1.0; stroke-width:1; " class="" /><ellipse id="ellipse549907712" cx="76" cy="13" rx="1" ry="1" style="fill:rgb(224,224,224); fill-opacity:1.0; " class="" /><line id="line54" x1="14" y1="69" x2="77" y2="14" style="stroke:rgb(224,224,224); stroke-opacity:1.0; stroke-width:1; " class="" /><ellipse id="ellipse233408512" cx="134" cy="76" rx="1" ry="1" style="fill:rgb(224,224,224); fill-opacity:1.0; " class="" /><line id="line56" x1="77" y1="14" x2="135" y2="77" style="stroke:rgb(224,224,224); stroke-opacity:1.0; stroke-width:1; " class="" /><ellipse id="ellipse882602752" cx="70" cy="136" rx="1" ry="1" style="fill:rgb(224,224,224); fill-opacity:1.0; " class="" /><line id="line58" x1="135" y1="77" x2="71" y2="137" style="stroke:rgb(224,224,224); stroke-opacity:1.0; stroke-width:1; " class="" /><ellipse id="ellipse592948736" cx="7" cy="72" rx="1" ry="1" style="fill:rgb(224,224,224); fill-opacity:1.0; " class="" /><line id="line5A" x1="71" y1="137" x2="8" y2="73" style="stroke:rgb(224,224,224); stroke-opacity:1.0; stroke-width:1; " class="" /><ellipse id="ellipse434714880" cx="72" cy="7" rx="1" ry="1" style="fill:rgb(224,224,224); fill-opacity:1.0; " class="" /><line id="line5C" x1="8" y1="73" x2="73" y2="8" style="stroke:rgb(224,224,224); stroke-opacity:1.0; stroke-width:1; " class="" /><ellipse id="ellipse610997248" cx="140" cy="72" rx="1" ry="1" style="fill:rgb(224,224,224); fill-opacity:1.0; " class="" /><line id="line5E" x1="73" y1="8" x2="141" y2="73" style="stroke:rgb(224,224,224); stroke-opacity:1.0; stroke-width:1; " class="" /><ellipse id="ellipse105398016" cx="74" cy="142" rx="1" ry="1" style="fill:rgb(224,224,224); fill-opacity:1.0; " class="" /><line id="line60" x1="141" y1="73" x2="75" y2="143" style="stroke:rgb(224,224,224); stroke-opacity:1.0; stroke-width:1; " class="" /><ellipse id="ellipse893106688" cx="1" cy="77" rx="1" ry="1" style="fill:rgb(224,224,224); fill-opacity:1.0; " class="" /><line id="line62" x1="75" y1="143" x2="2" y2="78" style="stroke:rgb(224,224,224); stroke-opacity:1.0; stroke-width:1; " class="" /><ellipse id="ellipse609256704" cx="67" cy="1" rx="1" ry="1" style="fill:rgb(224,224,224); fill-opacity:1.0; " class="" /><line id="line64" x1="2" y1="78" x2="68" y2="2" style="stroke:rgb(224,224,224); stroke-opacity:1.0; stroke-width:1; " class="" /></svg>